<?xml version="1.0" encoding="UTF-8"?>
<svg id="_Слой_1" data-name="Слой_1" xmlns="http://www.w3.org/2000/svg" version="1.1" viewBox="0 0 1725.87 2000">
  <!-- Generator: Adobe Illustrator 29.5.1, SVG Export Plug-In . SVG Version: 2.1.0 Build 141)  -->
  <g>
    <path d="M505.08,1730.26c-6.03,0-11.28,1.97-15.61,5.86-5.01,4.5-7.55,10.32-7.55,17.3s2.2,12.59,6.53,16.92c4.33,4.33,9.76,6.53,16.13,6.53s11.73-2.27,16.13-6.75c4.42-4.5,6.67-10.17,6.67-16.85s-2.22-12.12-6.6-16.42c-4.38-4.38-9.66-6.6-15.7-6.6ZM515.55,1769.65h-.07l-.1.11c-2.84,3.33-6.5,5.02-10.88,5.02-4.08,0-7.4-1.54-9.87-4.58-3.26-3.9-4.91-9.59-4.91-16.92s1.58-12.66,4.69-16.34c2.53-2.95,5.92-4.44,10.09-4.44,4.46,0,8,1.49,10.52,4.44,3.12,3.75,4.7,9.54,4.7,17.21,0,7.04-1.4,12.25-4.16,15.5Z"/>
    <path d="M580.99,1766.99c-.56.96-1.04,1.7-1.49,2.28-.96,1.23-2,2.23-3.1,2.97-1.25.83-2.45,1.41-3.67,1.76-3.57.98-7.76.8-11.22-.5-.82-.31-1.7-.76-2.76-1.42-2.61-1.62-4.73-4.22-6.31-7.74-1.45-3.12-2.36-7.42-2.43-11.51-.21-6.56,1.7-12.39,5.26-16.02,2.84-2.91,6.53-4.39,10.97-4.39,2.59,0,5.33.75,7.71,2.12,2.6,1.55,4.32,4.71,5.66,7.6.2.39.42.83.58,1.29l.16.33h1.39v-11.56h-1.4l-.19.19c-.34.4-1.19.29-1.87.11-.23-.04-.44-.1-.64-.16-.17-.05-.34-.1-.49-.13l-.28-.07c-1.08-.31-2.05-.59-3.05-.8-1.79-.43-3.68-.72-5.62-.88h-.2c-.87-.08-1.68-.14-2.5-.14-3.15,0-7.74.5-11.73,2.86-7,4.16-11.36,11.55-11.65,19.78-.22,5.73,1.56,11.54,4.77,15.54,1.77,2.22,3.91,4.05,6.17,5.29,3.78,2.03,8.62,3.07,14.39,3.07h1.68c2.77-.15,5.51-.75,7.87-1.31.74-.2,2.27-.7,3.68-1.25l.28-.14,1.91-7.57.17-.51-1.36-.5-.7,1.4Z"/>
    <path d="M595.98,1740.3h1.42l.44-1.14c1.82-4.42,4.91-6.3,10.33-6.3h5.39v36.61c0,2.24-.39,3.73-1.21,4.54-.51.51-1.24.77-2.15.77h-.76v1.52h15.32v-1.52h-.76c-.91,0-1.55-.24-2.08-.77-.81-.81-1.2-2.3-1.2-4.54v-36.61h5.38c5.43,0,8.5,1.88,10.25,6.3l.44,1.15h1.41v-9.47h-42.21v9.47Z"/>
    <path d="M674.23,1730.26c-6.03,0-11.28,1.97-15.61,5.86-5.01,4.5-7.55,10.32-7.55,17.3s2.2,12.59,6.53,16.92c4.33,4.33,9.76,6.53,16.13,6.53s11.73-2.27,16.13-6.75c4.42-4.5,6.67-10.17,6.67-16.85s-2.22-12.12-6.6-16.42c-4.38-4.38-9.66-6.6-15.7-6.6ZM684.71,1769.65h-.07l-.1.11c-2.84,3.33-6.5,5.02-10.88,5.02-4.08,0-7.4-1.54-9.87-4.58-3.26-3.9-4.91-9.59-4.91-16.92s1.58-12.66,4.69-16.34c2.53-2.95,5.92-4.44,10.09-4.44,4.46,0,8,1.49,10.52,4.44,3.12,3.75,4.7,9.54,4.7,17.21,0,7.04-1.4,12.25-4.16,15.5Z"/>
    <path d="M734.16,1750.51h-.01c5.27-1.09,10.09-4.32,10.09-9.67,0-6.36-5.62-10.01-15.43-10.01h-19.26v1.52h.76c.93,0,1.63.25,2.15.77.81.81,1.21,2.3,1.21,4.54v31.95c0,2.25-.39,3.73-1.2,4.55-.52.51-1.25.77-2.23.77h-.54v1.52h21c11.14,0,17.53-4.84,17.53-13.26,0-6.97-4.99-11.46-14.05-12.66ZM720.82,1733.07h8.13c5.42,0,8.28,2.71,8.28,7.84,0,5.6-3.44,8.57-9.94,8.57h-6.47v-16.41ZM730.71,1774.4l.05-.05h-9.94v-22.7h5.82c8.84,0,13.92,4.2,13.92,11.53s-3.49,10.91-9.85,11.22Z"/>
    <path d="M790.97,1769.1c-1.73,3.52-4.66,5.03-9.83,5.03h-9.07v-21.47h5.82c4.7,0,6.99,1.1,8.16,3.92l.3.7h1.41v-10.77h-1.39l-.31.62c-1.16,2.47-3.45,3.43-8.16,3.43h-5.82v-17.64h7.7c5.71,0,8.87,1.75,10.55,5.89l.16.33h1.39v-8.38h-31.15v1.52h.76c.91,0,1.55.24,2.08.77.81.81,1.2,2.3,1.2,4.54v31.95c0,2.25-.39,3.73-1.2,4.54-.52.52-1.22.77-2.16.77h-.76v1.52h32.52l.08-9.25h-1.41l-.88,1.98Z"/>
    <path d="M848.86,1774.71c-2.61-.49-4.8-3.02-6.12-4.54l-.13-.12c-1.41-1.66-2.68-3.45-3.91-5.17l-1.85-2.54-.87-1.3c-.29-.43-.66-.88-1.04-1.26-1.47-1.69-3-3-4.64-3.99-.07-.07-.16-.12-.26-.19-.06-.04-.13-.08-.22-.14l-.63-.35c8.94-.97,14.07-5.49,14.07-12.39,0-7.55-5.84-11.89-16.01-11.89h-20.13v1.52h.83c.84,0,1.48.24,2.01.77.81.81,1.21,2.3,1.21,4.54v31.95c0,2.25-.39,3.73-1.2,4.55-.52.51-1.25.77-2.23.77h-.54v1.52h15.32v-1.52h-.83c-.91,0-1.55-.24-2.08-.77-.81-.81-1.21-2.3-1.21-4.55v-14.2h4.53l.69.39c.78.46,1.46.96,2.05,1.48,1.53,1.31,2.79,2.89,3.75,4.68.72,1.37,1.37,2.67,2.09,4.11l.1.12c2.94,5.95,5.07,10.25,11.83,10.25h5.82v-1.29l-.27-.41-.13-.03ZM818.48,1753.38v-20.31h8.86c5.53,0,8.57,3.51,8.57,9.87s-3.53,10.18-9.5,10.49l.05-.05h-7.98Z"/>
    <path d="M897.34,1737.99h1.33l.19-.19c.81-1.01,2.69-1.84,3.63-1.98.46-.07,2.02-.14,5.01-.14h8.6l-11.43,14.99-.17.17v1.47h.52c6.52.35,11.26,5.26,11.26,11.67,0,4-2.87,8.28-6.83,10.19-3.36,1.61-6.92,1.17-9.77-1.19-2.55-2.11-3.79-2.75-5.34-2.75-.83,0-1.49.27-1.89.75-.35.35-.53.85-.53,1.47.05,1.6,1.31,3.67,7.01,4.43,1.28.15,2.74.22,4.23.22s2.95-.08,4.23-.22c8.11-1.03,14.96-8.09,14.96-15.42,0-6.1-4.67-11.83-11.4-14.06l.21-.35-.38-.13h0l11.58-15.25.71-.89h-25.72v7.23Z"/>
    <path d="M960.35,1745.46c-.6-.6-1.55-.96-1.97-1.1-.39-.08-.83-.08-1.27-.08h-.03c-3.74.07-7.78,2.71-10,5.17v-4.66h-1.61s-8.58,1.5-8.58,1.5v1.47h.62c.86,0,1.49.26,2,.83.73.8,1.07,2.25,1.07,4.55v17.04c-.07,2.04-.41,3.33-1.06,4.05-.5.5-1.06.7-2.01.7h-.54v1.52h13.59v-1.52h-.76c-.76,0-1.33-.24-1.79-.76-.73-.8-1.07-2.25-1.07-4.55v-16.93c1.54-1.74,2.89-2.93,4.02-3.53,1.27-.66,2.87-.22,3.71.09.32.13.65.32,1.04.56.74.44,1.51.91,2.3.98.94.09,1.67-.26,2.31-1.07.46-.6.68-1.33.66-2.06l.3-.22-.02-.19c-.08-.73-.42-1.39-.89-1.78Z"/>
    <path d="M1002.01,1771.78v-40.44h-1.54s-8.65,1.5-8.65,1.5v1.47h.76c.79,0,1.41.25,1.86.76.72.79,1.07,2.25,1.07,4.48v7.64c-1.34-1.17-3.97-2.97-7.55-2.97-8.03,0-13.62,6.34-13.91,15.79v1.1c.3,9.34,6.05,15.85,13.99,15.85,2.87,0,5.62-1.23,7.97-3.57l1.59,2.92h7.89v-1.52h-.76c-1.61,0-2.44-.94-2.71-3ZM995.51,1770.78c-.09.1-.21.22-.34.36-.21.23-.45.49-.65.69-.77.63-1.67,1.1-2.61,1.37-.97.28-2.04.42-3.09.42-2.51,0-4.39-.83-5.59-2.47-.56-.77-1.05-1.77-1.47-2.96-.43-1.15-.71-2.35-.85-3.68-.35-2.97-.3-5.93.14-8.8.24-1.51.53-2.64.92-3.55.44-1.18.94-2.06,1.53-2.72.59-.67,1.28-1.18,2-1.51.93-.47,2.02-.69,3.32-.69,3.88,0,6.2,2.35,6.69,2.91v20.64Z"/>
    <path d="M1028.6,1772.31l-.18-.27c-.15-.23-.3-.46-.53-.68-1.25-1.49-3.55-2.54-5.5-1.68-.97.4-1.74,1.21-2.13,2.2-.39,1.02-.39,2.06.01,2.94.44.88,1.22,1.42,1.65,1.66.7.39,1.57.57,2.44.47.66-.08,1.07-.4,1.24-.57l.12-.07c.34.3.58.99.52,1.51-.13,1.22-.89,3.17-2.58,4.66-.16.16-.6.48-1.12.83l-.6.46,1.11.99.75-.44c.62-.41,1.39-.92,1.82-1.29,1.85-1.56,2.98-3.47,3.36-5.68.36-1.93.16-3.58-.6-4.88l.23-.15Z"/>
    <path d="M1104.79,1767.98c-1.1,1.66-3.07,2.56-4.42,2.83-1.83.38-3.93.57-6.22.57h-10.57.01c1.43-1.3,5.01-4.73,9.12-8.77,4.84-4.77,8.19-8.76,9.96-11.86,2.67-4.81,2.81-10.33.36-14.41-2.31-3.88-6.54-6.02-11.91-6.02-7.18,0-12.35,4.34-13.83,11.6l-.23,1.04h1.47l.17-.35c1.81-4.39,5.53-6.81,10.47-6.81,4.34,0,8.24,3.05,9.08,7.11.86,4.13-.59,8.73-4.43,14.06-3.32,4.67-9.54,10.85-18.04,17.88l-.17.16v1.33h30.72v-8.5l-1.31-.11-.22.22Z"/>
    <path d="M1149.04,1735.72l-.16-.16c-3.32-3.47-7.1-5.23-11.22-5.23-2.51,0-5,.72-7.39,2.14-3.07,1.79-5.55,4.54-7.36,8.16l-.04.14c-1.82,3.68-2.75,8.11-2.75,13.16,0,5.97,1.45,11.17,4.32,15.43,3.4,5.03,7.72,7.59,12.84,7.59,2.61,0,5.34-.82,8.11-2.43,2.79-1.61,5.06-4.21,6.92-7.94,1.75-3.56,2.64-8.01,2.64-13.22,0-7.31-2.02-13.18-6.01-17.48l.07-.14ZM1145.6,1767.49l-.07-.08-.16.52c-.78,2.53-1.95,4.34-3.49,5.39-1.57,1.06-3.08,1.6-4.52,1.6-2.97,0-5.26-1.66-6.79-4.95-1.85-3.91-2.79-8.99-2.79-15.11,0-3.82.36-7.72,1.08-11.58.71-3.89,2.04-6.8,3.95-8.64,1.38-1.31,3.05-2.01,4.84-2.01,1.58,0,2.86.36,3.94,1.1,1.51,1.03,2.78,2.85,3.78,5.41,1.28,3.42,1.93,7.74,1.93,12.82,0,6.48-.57,11.7-1.71,15.51Z"/>
    <path d="M1197.97,1767.98c-1.1,1.66-3.07,2.56-4.42,2.83-1.83.38-3.93.57-6.22.57h-10.57.01c1.43-1.3,5.01-4.73,9.12-8.77,4.84-4.77,8.19-8.76,9.96-11.86,2.67-4.81,2.81-10.33.36-14.41-2.31-3.88-6.54-6.02-11.91-6.02-7.18,0-12.35,4.34-13.83,11.6l-.23,1.04h1.47l.17-.35c1.81-4.39,5.53-6.81,10.47-6.81,4.34,0,8.24,3.05,9.08,7.11.86,4.13-.59,8.73-4.43,14.06-3.32,4.67-9.54,10.85-18.04,17.88l-.17.16v1.33h30.72v-8.5l-1.31-.11-.22.22Z"/>
    <path d="M1239.8,1751.95c-.57-.5-1.16-1.02-1.84-1.47-.67-.44-1.34-.81-2.01-1.11-.72-.29-1.42-.5-2.21-.73-3.96-1.02-8.16-.4-11.24,1.63-.87.58-1.95,1.52-2.76,2.44l.07-.29c1.5-5.87,4.07-10.44,7.63-13.57,3.8-3.37,7.96-5.58,12.39-6.58l.48-.16-.23-1.41h-.54c-7.79,1.24-14.15,4.31-18.9,9.13-5.05,5.12-7.61,11.43-7.61,18.73,0,5.31,1.49,9.71,4.42,13.08,2.94,3.39,6.77,5.1,11.38,5.1,4.21,0,7.84-1.42,10.78-4.21,2.89-2.82,4.36-6.35,4.36-10.49s-1.32-7.28-3.93-9.85l-.23-.23ZM1235.72,1771.06h0s-.58.74-.58.74c-1.47,1.88-3.37,2.84-5.67,2.84-2.58,0-4.8-1.27-6.61-3.77-1.83-2.46-2.75-5.6-2.75-9.34,0-3.12.7-5.58,2.07-7.29l.09-.1c1.38-1.65,3.38-2.48,5.97-2.48s4.86,1.17,6.6,3.48c1.69,2.32,2.54,5.41,2.54,9.21,0,2.71-.56,4.97-1.66,6.72Z"/>
    <path d="M224.28,1656.7c-2.48,5.06-6.69,7.22-14.09,7.22h-13.04v-30.8h8.41c6.75,0,10.04,1.59,11.72,5.66l.39.91h1.77v-15.03h-1.76l-.4.8c-1.68,3.56-4.97,4.95-11.73,4.95h-8.41v-25.35h11.08c8.19,0,12.71,2.52,15.12,8.45l.19.39h1.76v-11.64h-44.01v1.88h.94c1.31,0,2.28.36,3.06,1.14,1.18,1.18,1.75,3.32,1.75,6.56v45.42c0,3.23-.57,5.37-1.75,6.56-.76.75-1.82,1.14-3.16,1.14h-.94v1.88h45.96l.11-12.87h-1.77l-1.21,2.75Z"/>
    <path d="M293.52,1653.95h-1.66l-.71,1.53c-2.53,6.06-6.79,8.54-14.7,8.54h-13.34v-52.18c0-3.23.57-5.38,1.75-6.56.75-.75,1.8-1.14,3.06-1.14h.94v-1.88h-21.41v1.88h.94c1.34,0,2.4.38,3.16,1.14,1.18,1.18,1.75,3.32,1.75,6.56v45.42c0,3.23-.57,5.37-1.75,6.56-.77.77-1.83,1.14-3.26,1.14h-.63v1.88h45.97l-.11-12.55v-.32Z"/>
    <path d="M332.04,1663.81c-1.18-1.18-1.75-3.33-1.75-6.56v-45.42c0-3.23.57-5.38,1.75-6.56l.46-.46c.68-.45,1.53-.68,2.5-.68h.94v-1.88h-21.41v1.88h.94c1.34,0,2.41.38,3.16,1.14,1.18,1.18,1.75,3.32,1.75,6.56v45.42c0,3.23-.57,5.37-1.75,6.56-.77.77-1.84,1.14-3.27,1.14h-.63v1.88h21.4v-1.88h-.94c-1.34,0-2.41-.38-3.16-1.14Z"/>
    <path d="M401.19,1638.11l-.21-.2c-4.93-4.73-11.71-6.95-17.69-8.91l-1.73-.58c-4.31-1.5-14.39-5.02-14.39-13.3,0-5.63,4.61-9.27,8.9-10.27,2.52-.61,5.26-.59,8.39,0,3.2.6,5.94,2.02,7.73,4.01,2.37,2.68,5.11,8.14,5.91,10.62l.19.39h1.76v-15.76h-2.11l-.21.21c-.53.62-1.78.35-2.32.24l-.1-.02c-4.69-1.74-9.98-2.69-14.91-2.69s-9.58,1.05-13.21,3.13c-1.94,1.12-3.83,2.68-5.33,4.38-4.51,5.35-4.92,13.56-.93,18.7,4.24,5.49,11.72,8.17,18.31,10.54l3,1.07.1.04c2.5.9,5.34,1.93,7.85,3.63,4.72,3.11,8.01,8.92,4.73,14.88-3.13,5.55-10.61,7.39-16.64,6.83-2.12-.21-4.22-.74-6.07-1.52-5.55-2.42-9.49-7.77-12.05-16.35l-.17-.53h-1.79v17.19h2.12s.1-.11.1-.11c.02-.03.53-.61,1.71-.51.14,0,.51.08.69.17,1.18.54,5.23,2.19,9.81,3.41,2.69.7,5.44,1.04,8.4,1.04,4.76,0,9.32-.97,13.2-2.81,3.29-1.64,7.64-4.58,9.71-9.21.98-2.4,1.46-4.6,1.46-6.7,0-3.94-1.6-7.7-4.52-10.62l.31-.41Z"/>
    <path d="M468.04,1664.64h-2.28v1.88h23.97v-1.65l-.3-.03c-.5-.04-1.28-.12-1.47-.19l-.67-.02c-2.56-.71-4.55-2.84-6.43-6.9l-23.85-54.89-.19-.39h-4.23l-20.42,55.18c-1.99,4.98-4.37,7.2-7.71,7.2h-.84v1.88h17.19v-1.88h-1.04c-1.99,0-3.32-.49-4.05-1.51-.98-1.37-.93-3.56.14-6.89l5.16-14.07h22.47l6.69,15.92c.9,2.5.98,4.14.25,5.14-.43.61-1.24,1.01-2.41,1.2ZM442.1,1639.46l9.42-25.92,10.9,25.92h-20.32Z"/>
    <path d="M562.37,1648.22c0-9.85-7.07-16.19-19.9-17.88l-.21-.2h-.09c7.55-1.47,14.55-6.04,14.55-13.67,0-8.96-7.95-14.09-21.8-14.09h-27.25v1.88h.94c1.36,0,2.4.37,3.16,1.13,1.18,1.18,1.75,3.32,1.75,6.56v45.42c0,3.23-.57,5.37-1.75,6.55-.76.77-1.83,1.14-3.26,1.14h-.63v1.88h29.71c15.75,0,24.78-6.83,24.78-18.72ZM523.42,1605.28h11.7c7.68,0,11.9,4.01,11.9,11.29,0,8.06-4.93,12.31-14.27,12.31h-9.33v-23.61ZM537.26,1664.32l.09-.09h-13.93v-32.54h8.41c12.66,0,19.92,6.02,19.92,16.53s-5.14,15.79-14.49,16.1Z"/>
    <path d="M626.37,1653.95h-1.77l-1.21,2.75c-2.48,5.06-6.69,7.22-14.09,7.22h-13.04v-30.8h8.41c6.75,0,10.04,1.59,11.72,5.66l.39.91h1.77v-15.03h-1.76l-.4.8c-1.68,3.56-4.97,4.95-11.73,4.95h-8.41v-25.35h11.08c8.19,0,12.71,2.52,15.12,8.45l.19.39h1.76v-11.64h-44.01v1.88h.94c1.31,0,2.28.36,3.06,1.14,1.18,1.18,1.75,3.32,1.75,6.56v45.42c0,3.23-.57,5.37-1.75,6.56-.76.75-1.82,1.14-3.16,1.14h-.94v1.88h45.96l.11-12.87Z"/>
    <path d="M646.56,1615.55h1.78l.59-1.54c2.62-6.34,7.05-9.05,14.81-9.05h7.79v52.19c0,3.23-.57,5.37-1.75,6.56-.77.76-1.8,1.13-3.16,1.13h-.94v1.88h21.51v-1.88h-.94c-1.31,0-2.29-.36-3.06-1.13-1.18-1.18-1.75-3.33-1.75-6.56v-52.19h7.79c7.79,0,12.18,2.7,14.7,9.04l.59,1.54h1.78v-13.18h-59.73v13.18Z"/>
    <path d="M746.87,1664.95h-.94c-1.34,0-2.4-.38-3.16-1.14-1.18-1.18-1.75-3.32-1.75-6.56v-25.16h33.57v25.16c0,3.23-.57,5.37-1.75,6.56-.71.7-1.71,1.03-3.16,1.03h-.94v1.88h21.41v-1.88h-.94c-1.33,0-2.27-.35-3.06-1.13-1.18-1.18-1.75-3.33-1.75-6.56v-45.42c0-3.1.53-5.2,1.62-6.41l.3.1.14-.14c.78-.78,1.72-1.14,2.96-1.14h.94v-1.88h-21.41v1.88h1.04c1.24,0,2.18.36,2.96,1.14,1.18,1.18,1.75,3.32,1.75,6.56v17.56h-33.57v-17.56c0-3.23.57-5.38,1.75-6.56.76-.75,1.79-1.14,3.06-1.14h.94v-1.88h-21.41v1.88h.94c1.31,0,2.28.36,3.06,1.14,1.18,1.18,1.75,3.32,1.75,6.56v45.42c0,3.23-.57,5.37-1.75,6.56-.77.77-1.83,1.14-3.27,1.14h-.74v1.88h21.41v-1.88Z"/>
    <path d="M893.38,1660.9l.12.16c3.05,3.99,6.71,5.78,11.87,5.78h8.13v-1.88h-.58c-4.16-.71-8.59-4.16-13.14-10.23l-.09-.13c.09-.14.23-.36.4-.64.48-.75,1.23-1.9,2.03-3.13,1.63-2.5,3.49-5.34,3.84-6.05,1.17-2.33,2.9-4.68,4.58-6.94l.22-.29c.75-.93,1.58-1.89,2.61-2.61,2.46-1.77,4.65-1.99,4.67-2l.34-.03-.29-2.05h-19.51v1.79l.55.18c1.12.3,1.97.81,2.62,1.55,1.47,1.66,2.07,4.43,1.57,7.23-.5,2.7-3.92,7.83-5.38,10.03l-.16.2c-8.62-11.81-13.56-20.54-14.46-22.17l.43-.24c5.91-2.95,10.09-5.74,12.42-8.29,2.21-2.42,3.37-5.41,3.37-8.65s-1.21-5.78-3.6-7.95c-2.37-2.17-5.52-3.27-9.36-3.27s-7.6,1.09-10.67,3.25c-3.94,2.87-5.89,7.01-5.79,12.28,0,1.86.28,3.93.84,6.16.58,1.93,1.49,3.8,2.86,6.64l.63,1.35-.46.26c-6.93,3.73-12.63,8.3-15.63,12.53-2.7,3.74-4.07,7.57-4.07,11.39s1.56,7.04,4.63,9.8c3.13,2.71,7.42,4.09,12.75,4.09,4.03,0,8.32-.94,12.78-2.81,1.97-.92,3.55-1.73,4.79-2.45.4-.13,3.03-1.95,4-2.72l.15-.11ZM879.16,1607.85l.57-.75c1.6-2.1,3.9-3.16,6.83-3.16,2.37,0,4.36.8,5.94,2.37s2.37,3.64,2.37,6.14c0,3.18-1.02,5.94-3.11,8.43-2.07,2.57-5.41,4.27-9.25,6.08l-.53.27c-.53-1.07-2.43-4.98-3.64-8.6-.6-2.01-.91-3.85-.91-5.46,0-1.7.58-3.48,1.73-5.32ZM891.29,1658.86c-3.49,2.87-7.75,4.16-11.07,4.97-1.16.27-2.35.4-3.63.4-3.96,0-7.2-1.38-9.62-4.1-2.4-2.7-3.62-5.88-3.62-9.45,0-3.24,1.02-6.25,3.02-8.95,2.04-2.76,5.09-5.28,9.05-7.51l.42-.24.26.52c1.94,3.79,3.82,7.12,5.57,9.89,1.9,3,5.77,8.62,9.79,13.9l.27.32-.43.25Z"/>
    <path d="M1023.59,1602.37v1.88h.94c1.36,0,2.4.37,3.16,1.13,1.2,1.2,1.75,3.25,1.75,6.45v40.11l-36.03-49.38-.2-.19h-14.53v1.88h.94c1.24,0,2.18.36,2.96,1.13,1.18,1.18,1.75,3.33,1.75,6.56v45.42c0,3.23-.57,5.37-1.75,6.55-.77.78-1.84,1.14-3.37,1.14h-.63v1.88h14.73v-1.88h-.94c-1.34,0-2.41-.38-3.16-1.14-1.2-1.2-1.75-3.24-1.75-6.45v-46.59l37.02,50.57,3.8,5.35.1.14h3.99v-54.98c.12-3.24.72-5.63,1.65-6.57.71-.7,1.71-1.03,3.16-1.03h1.04v-1.88l-14.3-.11h-.33Z"/>
    <path d="M1062.72,1663.81c-.77.77-1.84,1.14-3.27,1.14h-.63v1.88h21.4v-1.88h-.94c-1.34,0-2.41-.38-3.16-1.14-1.18-1.18-1.75-3.33-1.75-6.56v-45.42c0-3.23.57-5.38,1.75-6.56l.46-.46c.68-.45,1.53-.68,2.5-.68h.94v-1.88h-21.41v1.88h.94c1.34,0,2.41.38,3.16,1.14,1.18,1.18,1.75,3.32,1.75,6.56v45.42c0,3.23-.57,5.37-1.75,6.56Z"/>
    <path d="M1155.14,1653.7c-.81,1.39-1.49,2.43-2.13,3.26-1.37,1.76-2.86,3.19-4.44,4.24-1.77,1.18-3.49,2.01-5.25,2.53-5.11,1.4-11.1,1.14-16.03-.71-1.19-.46-2.49-1.12-3.95-2.03-3.73-2.32-6.77-6.04-9.02-11.06-2.07-4.45-3.36-10.58-3.46-16.42-.31-9.37,2.43-17.71,7.51-22.89,4.06-4.16,9.34-6.27,15.7-6.27,3.72,0,7.64,1.08,11.04,3.04,3.72,2.21,6.18,6.73,8.09,10.85l.04.08c.3.6.58,1.17.79,1.78l.19.39h1.76v-16.17h-1.8l-.21.22c-.42.5-1.35.57-2.78.19-.33-.05-.64-.14-.94-.23-.24-.07-.47-.13-.68-.18l-.4-.1c-1.54-.44-2.93-.83-4.33-1.13-2.54-.61-5.22-1.03-7.96-1.24h-.15c-1.27-.11-2.48-.21-3.68-.21-4.46,0-10.95.7-16.61,4.05-9.92,5.89-16.08,16.36-16.5,28.01-.31,8.1,2.21,16.33,6.75,22,2.51,3.14,5.53,5.73,8.73,7.48,5.35,2.89,12.22,4.35,20.4,4.35h2.38c3.9-.21,7.8-1.07,11.16-1.86,1.05-.29,3.22-1,5.2-1.77l.34-.17,2.7-10.71.2-.6-1.7-.62-.94,1.88Z"/>
    <path d="M1199.08,1664.95h-.94c-1.34,0-2.4-.38-3.16-1.14-1.18-1.18-1.75-3.32-1.75-6.56v-25.16h33.57v25.16c0,3.23-.57,5.37-1.75,6.56-.71.7-1.71,1.03-3.16,1.03h-.94v1.88h21.41v-1.88h-.94c-1.33,0-2.27-.35-3.06-1.13-1.18-1.18-1.75-3.33-1.75-6.56v-45.42c0-3.1.53-5.2,1.62-6.41l.3.1.14-.14c.78-.78,1.72-1.14,2.96-1.14h.94v-1.88h-21.41v1.88h1.04c1.24,0,2.18.36,2.96,1.14,1.18,1.18,1.75,3.32,1.75,6.56v17.56h-33.57v-17.56c0-3.23.57-5.38,1.75-6.56.76-.75,1.79-1.14,3.06-1.14h.94v-1.88h-21.41v1.88h.94c1.31,0,2.28.36,3.06,1.14,1.18,1.18,1.75,3.32,1.75,6.56v45.42c0,3.23-.57,5.37-1.75,6.56-.77.77-1.83,1.14-3.27,1.14h-.74v1.88h21.41v-1.88Z"/>
    <path d="M1295.12,1601.55c-8.54,0-15.97,2.79-22.1,8.3-7.09,6.37-10.69,14.6-10.69,24.49s3.11,17.83,9.24,23.96c6.13,6.13,13.82,9.24,22.84,9.24s16.61-3.21,22.84-9.55c6.26-6.37,9.44-14.4,9.44-23.86s-3.15-17.15-9.34-23.24c-6.2-6.2-13.67-9.34-22.22-9.34ZM1310.08,1657.55h-.1l-.1.11c-4.06,4.76-9.3,7.18-15.58,7.18-5.84,0-10.59-2.21-14.14-6.56-4.66-5.57-7.01-13.69-7.01-24.15s2.25-18.07,6.7-23.32c3.62-4.22,8.48-6.36,14.45-6.36,6.38,0,11.45,2.14,15.06,6.36,4.45,5.36,6.7,13.62,6.7,24.56,0,10.07-2.01,17.53-5.99,22.18Z"/>
    <path d="M1391.5,1653.95h-1.66l-.71,1.53c-2.53,6.06-6.79,8.54-14.7,8.54h-13.34v-52.18c0-3.23.57-5.38,1.75-6.56.75-.75,1.8-1.14,3.06-1.14h.94v-1.88h-21.41v1.88h.94c1.34,0,2.4.38,3.16,1.14,1.18,1.18,1.75,3.32,1.75,6.56v45.42c0,3.23-.57,5.37-1.75,6.56-.77.77-1.83,1.14-3.26,1.14h-.63v1.88h45.97l-.11-12.55v-.32Z"/>
    <path d="M1475.63,1664.66l-.67-.02c-2.56-.71-4.55-2.84-6.43-6.9l-23.85-54.89-.19-.39h-4.23l-20.42,55.18c-1.99,4.98-4.37,7.2-7.71,7.2h-.84v1.88h17.19v-1.88h-1.04c-1.99,0-3.32-.49-4.05-1.51-.98-1.37-.93-3.56.14-6.89l5.16-14.07h22.47l6.69,15.92c.9,2.5.98,4.14.25,5.14-.43.61-1.24,1.01-2.41,1.2h-2.28v1.88h23.97v-1.65l-.3-.03c-.5-.04-1.28-.12-1.47-.19ZM1429.75,1639.46l9.42-25.92,10.9,25.92h-20.32Z"/>
    <path d="M1540.16,1638.52l.31-.41-.21-.2c-4.93-4.73-11.71-6.95-17.69-8.91l-1.73-.58c-4.31-1.5-14.39-5.02-14.39-13.3,0-5.63,4.61-9.27,8.9-10.27,2.51-.61,5.26-.59,8.39,0,3.2.6,5.94,2.02,7.73,4.01,2.37,2.68,5.11,8.14,5.91,10.62l.19.39h1.76v-15.76h-2.11l-.21.21c-.53.62-1.79.35-2.32.24l-.1-.02c-4.69-1.74-9.98-2.69-14.91-2.69s-9.58,1.05-13.21,3.13c-1.94,1.12-3.83,2.68-5.33,4.38-4.51,5.35-4.92,13.56-.93,18.7,4.24,5.49,11.72,8.17,18.31,10.54l3,1.07.1.04c2.5.9,5.34,1.93,7.85,3.63,4.72,3.11,8.01,8.92,4.73,14.88-3.13,5.55-10.61,7.39-16.64,6.83-2.12-.21-4.22-.74-6.07-1.52-5.55-2.42-9.49-7.77-12.05-16.35l-.17-.53h-1.79v17.19h2.12s.1-.11.1-.11c.02-.03.52-.61,1.71-.51.14,0,.51.08.69.17,1.18.54,5.23,2.19,9.81,3.41,2.69.7,5.44,1.04,8.4,1.04,4.76,0,9.32-.97,13.2-2.81,3.29-1.64,7.64-4.58,9.71-9.21.98-2.4,1.46-4.6,1.46-6.7,0-3.94-1.6-7.7-4.52-10.62Z"/>
  </g>
  <g>
    <path d="M1212.32,496.6v9.83h7.88c11.77,0,21.32.74,29.06,2.27,20.76,4.08,29.99,13.95,29.99,32.03v848.39c-.05,4.5-1.3,12.51-5.47,13.35-.19.05-.42.05-.6.05-2.09,0-4.4-2.27-5.75-4.59-3.06-5.1-5.52-10.8-7.88-16.32-.83-1.95-1.67-3.89-2.55-5.79-3.71-8.3-7.37-16.55-11.03-24.84l-.14-.32-.32-.7c-6.81-15.2-13.53-30.41-20.3-45.61-4.31-9.64-8.57-19.28-12.89-28.92-4.26-9.59-8.57-19.19-12.84-28.78-9.92-22.39-19.88-44.77-29.9-67.12-5.47-12.33-10.94-24.66-16.41-36.99-5.47-12.24-10.89-24.52-16.36-36.76-11.45-25.59-22.85-51.22-34.21-76.8l-.37-.79-.23-.56c-11.63-26.05-23.22-52.1-34.81-78.19-8.76-19.65-17.52-39.26-26.23-58.91l-8.11-18.22-16.27-36.57-16.13-36.29c-9.78-21.88-19.56-43.85-29.29-65.72-4.17-9.36-8.34-18.73-12.47-28.04-4.17-9.27-8.3-18.59-12.42-27.86-3.24-7.28-6.44-14.51-9.69-21.78-3.2-7.18-6.4-14.41-9.59-21.6-4.22-9.41-8.44-18.73-12.56-28.09l-1.67-3.75c-15.53-34.86-31.56-70.92-52.33-104.24-53.63-86.16-146.98-190.22-287.37-196.62-.28-.05-.56-.09-.83-.09-.14,0-.32-.05-.56-.05l-.23-.05h-.23c-.46,0-.88,0-1.34-.05-.65-.05-1.25-.09-1.85-.09h-1.95c-.42,0-.83,0-1.3-.05-1.02,0-1.81-.05-2.64-.05-.88,0-1.76-.05-2.69-.05h-1.02c-21,.05-41.07,2.83-59.84,8.11-1.58.42-3.11.88-4.64,1.34-1.58.46-3.11.97-4.64,1.48-19.79,6.58-38.05,15.99-54.18,28.09-1.58,1.16-3.11,2.32-4.64,3.57-1.58,1.21-3.11,2.5-4.64,3.8-14.23,12.14-26.6,26.51-36.71,42.87-39.72,60.07-31.52,143.87,19.51,199.17,5.7,6.21,11.4,11.77,17.2,16.87v-19.65c-2.18-2.22-4.36-4.59-6.49-6.91-46.63-50.52-54.23-126.91-18.08-181.69,7.09-11.4,15.3-21.74,24.57-30.96,1.53-1.53,3.06-2.97,4.64-4.4,1.53-1.44,3.06-2.78,4.64-4.08,15.76-13.53,34.02-24.1,54.18-31.38,1.53-.56,3.06-1.11,4.64-1.62,1.53-.51,3.06-.97,4.64-1.44,18.82-5.75,39.17-8.71,60.49-8.71h.42c1.53,0,3.15,0,4.73.05,1.25,0,2.41.09,3.48.14,11.82.56,23.82,2.46,35.69,5.65,39.07,10.61,76.85,34.76,115.5,73.79,29.29,29.66,56.45,65.21,83.06,108.74,10.43,17.1,20.49,35.27,30.64,55.53v473.13h15.62v-440.64c8.06,17.24,15.85,34.76,23.45,51.82l.56,1.21c10.75,24.1,21.55,48.2,32.21,72.26,14.18,31.66,28.32,63.31,42.41,94.97,10.34,23.18,20.72,46.4,31.05,69.53l17.38,38.84c16.55,37.13,33.09,74.21,49.64,111.29l1.16,2.6c6.72,15.16,13.49,30.27,20.25,45.42,9.83,21.92,19.61,43.85,29.39,65.77l22.29,50.01,22.53,50.43.37.83c12.05,26.98,24.1,54,36.11,80.97l22.8,50.94,1.76,3.99c.97,2.18,1.9,4.4,2.83,6.58,4.73,11.22,9.64,22.8,19.79,30.87,7.74,6.21,17.52,9.46,28.27,9.46,5.52,0,10.94-.83,16.27-2.55,8.48-2.73,15.16-7.69,19.28-14.42,4.45-7.28,6.72-16.59,6.72-27.67v-789.06c0-2.78.09-5.52.14-8.16v-47.32c0-18.26,9.46-28.18,30.64-32.17,7.46-1.44,16.73-2.13,28.46-2.13h7.83v-9.83h-149.48Z"/>
    <path d="M709.37,760.71v-196.76h-9.83v3.71c0,2.5-.05,5.01-.14,7.51-.14,4.22-.42,8.07-.83,11.82-.32,3.38-.83,6.86-1.58,10.71-.74,3.66-1.48,6.72-2.27,9.55-.46,1.67-.97,3.29-1.53,4.77-2.41,6.72-5.42,12.61-8.95,17.52-5.75,8.11-13.81,14.55-23.27,18.63-8.81,3.89-18.82,5.61-32.45,5.61-4.82,0-9.73-.23-14.32-.46-8.44-.46-17.24-1.11-26.88-1.99-3.94-.37-7.93-.79-11.96-1.3-3.89-.46-7.93-.93-11.82-1.53-4.17-.6-8.11-1.2-11.77-1.85-4.03-.7-7.88-1.48-11.59-2.27-3.71-.79-7.69-1.62-11.49-2.6l-1.16-.28c-3.34-.83-6.81-1.72-10.15-2.69-4.08-1.21-7.74-2.36-11.08-3.48-2.92-.97-5.42-1.9-7.74-2.73v15.43c5.33,1.85,10.8,3.57,16.36,5.14,12.93,3.66,26.56,6.58,41.67,8.9,13.35,2.09,27.35,3.66,42.78,4.77,7.23.56,14.51.93,21.6,1.25,1.53.05,3.06.09,4.59.19,6.44.19,13.12.42,19.47,1.62,14.14,2.55,26.1,8.95,34.53,18.45,13.21,14.83,19.93,37.91,19.93,68.64v3.71h9.87Z"/>
    <path d="M848.19,1385.78v-277.9h-15.62v277.9c0,24.7-16.55,34.3-59.1,34.3h-7.83v9.83h149.48v-9.83h-7.83c-42.55,0-59.1-9.59-59.1-34.3Z"/>
    <path d="M435.12,259.38v69.53c16.36-11.36,34.53-20.26,54.18-26.42v-72.77h202.04c123.06,0,141.14,67.35,142.39,140.16l.09,3.66h14.37v-158.29h-480v9.83h7.83c42.55,0,59.1,9.59,59.1,34.3Z"/>
    <path d="M435.12,371.37v733.07c0,24.7-16.55,34.3-59.1,34.3h-7.83v9.83h480v-158.29h-15.57l-.05,3.66c-.32,17.01-1.44,33.74-4.64,49.36-1.21,6.07-2.73,11.96-4.64,17.61-14.09,42.41-48.81,73.19-131.96,73.19h-202.04V337.44c-20.44,7.83-38.75,19.28-54.18,33.93Z"/>
  </g>
</svg>