<?xml version="1.0" encoding="UTF-8"?>
<svg id="_Слой_1" data-name="Слой_1" xmlns="http://www.w3.org/2000/svg" version="1.1" viewBox="0 0 1725.87 2000">
  <!-- Generator: Adobe Illustrator 29.5.1, SVG Export Plug-In . SVG Version: 2.1.0 Build 141)  -->
  <path d="M1287.73,603.66v11.95h9.58c14.31,0,25.92.9,35.33,2.76,25.25,4.96,36.46,16.96,36.46,38.94v1031.5c-.06,5.47-1.58,15.22-6.65,16.23-.23.06-.51.06-.73.06-2.54,0-5.35-2.76-6.99-5.58-3.72-6.2-6.71-13.13-9.58-19.84-1.01-2.37-2.03-4.73-3.1-7.04-4.51-10.09-8.96-20.12-13.41-30.21l-.17-.39-.39-.85c-8.28-18.48-16.46-36.97-24.68-55.45-5.24-11.72-10.43-23.44-15.67-35.16-5.18-11.67-10.43-23.33-15.61-35-12.06-27.22-24.18-54.44-36.35-81.6-6.65-14.99-13.3-29.98-19.95-44.97-6.65-14.88-13.24-29.81-19.89-44.69-13.92-31.11-27.78-62.27-41.59-93.38l-.45-.96-.28-.68c-14.14-31.67-28.23-63.34-42.32-95.07-10.65-23.89-21.3-47.73-31.9-71.63l-9.86-22.15-19.78-44.46-19.61-44.13c-11.89-26.6-23.78-53.31-35.62-79.91-5.07-11.38-10.14-22.77-15.16-34.09-5.07-11.27-10.09-22.6-15.1-33.87-3.94-8.85-7.83-17.64-11.78-26.49-3.89-8.73-7.78-17.53-11.67-26.26-5.13-11.44-10.26-22.77-15.27-34.15l-2.03-4.56c-18.88-42.38-38.38-86.22-63.62-126.74-65.2-104.76-178.7-231.28-349.39-239.05-.34-.06-.68-.11-1.01-.11-.17,0-.39-.06-.68-.06l-.28-.06h-.28c-.56,0-1.07,0-1.63-.06-.79-.06-1.52-.11-2.25-.11h-2.37c-.51,0-1.01,0-1.58-.06-1.24,0-2.2-.06-3.21-.06-1.07,0-2.14-.06-3.27-.06h-1.24c-25.53.06-49.93,3.44-72.75,9.86-1.92.51-3.78,1.07-5.64,1.63-1.92.56-3.78,1.18-5.64,1.8-24.06,8-46.27,19.44-65.88,34.15-1.92,1.41-3.78,2.82-5.64,4.34-1.92,1.47-3.78,3.04-5.64,4.62-17.3,14.76-32.35,32.23-44.63,52.13-48.3,73.03-38.32,174.92,23.72,242.15,6.93,7.55,13.86,14.31,20.91,20.51v-23.89c-2.65-2.7-5.3-5.58-7.89-8.4-56.69-61.43-65.93-154.3-21.98-220.91,8.62-13.86,18.6-26.43,29.87-37.64,1.86-1.86,3.72-3.61,5.64-5.35,1.86-1.75,3.72-3.38,5.64-4.96,19.16-16.46,41.36-29.3,65.88-38.15,1.86-.68,3.72-1.35,5.64-1.97,1.86-.62,3.72-1.18,5.64-1.75,22.88-6.99,47.62-10.59,73.54-10.59h.51c1.86,0,3.83,0,5.75.06,1.52,0,2.93.11,4.23.17,14.37.68,28.97,2.99,43.39,6.88,47.51,12.9,93.43,42.27,140.43,89.72,35.62,36.07,68.64,79.29,100.99,132.21,12.68,20.79,24.91,42.89,37.25,67.51v528.03c-.39,20.68-1.75,41.03-5.64,60.02-1.47,7.38-3.33,14.54-5.64,21.41-17.13,51.56-59.34,88.98-160.44,88.98h-245.65V410.15c-24.85,9.52-47.11,23.44-65.88,41.25v891.29c0,30.04-20.12,41.7-71.85,41.7h-9.52v11.95h564.61v288.42c0,30.04-20.12,41.7-71.85,41.7h-9.52v11.95h181.74v-11.95h-9.52c-51.73,0-71.85-11.67-71.85-41.7v-964.94c9.81,20.96,19.27,42.27,28.52,63l.68,1.47c13.07,29.3,26.2,58.61,39.17,87.86,17.24,38.49,34.43,76.98,51.56,115.47,12.57,28.18,25.19,56.41,37.76,84.53l21.13,47.22c20.12,45.14,40.24,90.22,60.35,135.31l1.41,3.16c8.17,18.43,16.4,36.8,24.63,55.23,11.95,26.66,23.84,53.31,35.73,79.97l27.11,60.81,27.39,61.31.45,1.01c14.65,32.8,29.3,65.65,43.9,98.45l27.73,61.93,2.14,4.85c1.18,2.65,2.31,5.35,3.44,8,5.75,13.64,11.72,27.73,24.06,37.53,9.41,7.55,21.3,11.5,34.38,11.5,6.71,0,13.3-1.01,19.78-3.1,10.31-3.33,18.43-9.35,23.44-17.53,5.41-8.85,8.17-20.17,8.17-33.64v-959.37c0-3.38.11-6.71.17-9.92v-57.54c0-22.2,11.5-34.26,37.25-39.11,9.07-1.75,20.34-2.59,34.6-2.59h9.52v-11.95h-181.74Z"/>
  <path d="M676.23,924.77v-239.22h-11.95v4.51c0,3.04-.06,6.09-.17,9.13-.17,5.13-.51,9.81-1.01,14.37-.39,4.11-1.01,8.34-1.92,13.02-.9,4.45-1.8,8.17-2.76,11.61-.56,2.03-1.18,4-1.86,5.8-2.93,8.17-6.59,15.33-10.88,21.3-6.99,9.86-16.79,17.7-28.29,22.65-10.71,4.73-22.88,6.82-39.45,6.82-5.86,0-11.83-.28-17.41-.56-10.26-.56-20.96-1.35-32.69-2.42-4.79-.45-9.64-.96-14.54-1.58-4.73-.56-9.64-1.13-14.37-1.86-5.07-.73-9.86-1.46-14.31-2.25-4.9-.85-9.58-1.8-14.09-2.76-4.51-.96-9.35-1.97-13.98-3.16l-1.41-.34c-4.06-1.01-8.28-2.09-12.34-3.27-4.96-1.47-9.41-2.87-13.47-4.23-3.55-1.18-6.59-2.31-9.41-3.33v18.77c6.48,2.25,13.13,4.34,19.89,6.26,15.72,4.45,32.29,8,50.66,10.82,16.23,2.54,33.25,4.45,52.01,5.8,8.79.68,17.64,1.13,26.26,1.52,1.86.06,3.72.11,5.58.23,7.83.23,15.95.51,23.67,1.97,17.19,3.1,31.73,10.88,41.98,22.43,16.06,18.03,24.23,46.1,24.23,83.46v4.51h12Z"/>
  <path d="M342.79,315.25v84.53c19.89-13.81,41.98-24.63,65.88-32.12v-88.48h245.65c149.62,0,171.6,81.88,173.12,170.41l.11,4.45h17.47v-192.45H261.41v11.95h9.52c51.73,0,71.85,11.67,71.85,41.7Z"/>
</svg>